<mxfile host="drawio-plugin" agent="Mozilla/5.0 (Windows NT 10.0; Win64; x64) AppleWebKit/537.36 (KHTML, like Gecko) Chrome/122.0.0.0 Safari/537.36" modified="2025-03-22T21:06:17.644Z" version="22.1.22" etag="IIun8hnnVJRTIymocaIR" type="embed">
  <diagram name="Page-1" id="2YBvvXClWsGukQMizWep">
    <mxGraphModel dx="2202" dy="752" grid="1" gridSize="10" guides="1" tooltips="1" connect="1" arrows="1" fold="1" page="1" pageScale="1" pageWidth="850" pageHeight="1100" math="0" shadow="0">
      <root>
        <mxCell id="0" />
        <mxCell id="1" parent="0" />
        <mxCell id="Lk89NqeJCPw3DJM_zRsA-82" value="" style="rounded=0;whiteSpace=wrap;html=1;fillColor=#e1d5e7;strokeColor=#9673a6;" parent="1" vertex="1">
          <mxGeometry x="-100" y="1145" width="1160" height="245" as="geometry" />
        </mxCell>
        <mxCell id="Lk89NqeJCPw3DJM_zRsA-50" value="Move to video preview" style="text;html=1;align=center;verticalAlign=middle;whiteSpace=wrap;rounded=0;fontSize=13;" parent="1" vertex="1">
          <mxGeometry x="-20" y="720" width="240" height="30" as="geometry" />
        </mxCell>
        <mxCell id="Lk89NqeJCPw3DJM_zRsA-79" value="Return progress percentage" style="text;html=1;align=center;verticalAlign=middle;whiteSpace=wrap;rounded=0;fontSize=13;" parent="1" vertex="1">
          <mxGeometry x="210" y="1270" width="470" height="30" as="geometry" />
        </mxCell>
        <mxCell id="Lk89NqeJCPw3DJM_zRsA-70" value="Return job_id" style="text;html=1;align=center;verticalAlign=middle;whiteSpace=wrap;rounded=0;fontSize=13;" parent="1" vertex="1">
          <mxGeometry x="210" y="1080" width="470" height="30" as="geometry" />
        </mxCell>
        <mxCell id="Lk89NqeJCPw3DJM_zRsA-62" value="&lt;font style=&quot;font-size: 13px;&quot;&gt;POST&lt;b&gt; &lt;i&gt;&lt;font style=&quot;background-color: rgb(255, 204, 153); color: rgb(0, 0, 255);&quot; face=&quot;Comic Sans MS&quot;&gt;/api/video/process-reddit-comments-video/&lt;/font&gt;&lt;/i&gt;&lt;/b&gt;&lt;/font&gt;" style="text;html=1;align=center;verticalAlign=middle;whiteSpace=wrap;rounded=0;" parent="1" vertex="1">
          <mxGeometry x="200" y="940" width="490" height="30" as="geometry" />
        </mxCell>
        <mxCell id="Lk89NqeJCPw3DJM_zRsA-12" value="Retrieve post details (Tile, User avatar, Comments)" style="text;html=1;align=center;verticalAlign=middle;whiteSpace=wrap;rounded=0;fontSize=13;" parent="1" vertex="1">
          <mxGeometry x="210" y="310" width="470" height="30" as="geometry" />
        </mxCell>
        <mxCell id="Lk89NqeJCPw3DJM_zRsA-10" value="&lt;font style=&quot;font-size: 13px;&quot;&gt;POST&lt;b&gt; &lt;i&gt;&lt;font style=&quot;background-color: rgb(255, 204, 153); color: rgb(0, 0, 255);&quot; face=&quot;Comic Sans MS&quot;&gt;/api/crawl/fetch-reddit-comments/&lt;/font&gt;&lt;/i&gt;&lt;/b&gt;&lt;/font&gt;" style="text;html=1;align=center;verticalAlign=middle;whiteSpace=wrap;rounded=0;" parent="1" vertex="1">
          <mxGeometry x="200" y="229" width="490" height="30" as="geometry" />
        </mxCell>
        <mxCell id="aM9ryv3xv72pqoxQDRHE-1" value="User" style="shape=umlLifeline;perimeter=lifelinePerimeter;whiteSpace=wrap;html=1;container=0;dropTarget=0;collapsible=0;recursiveResize=0;outlineConnect=0;portConstraint=eastwest;newEdgeStyle={&quot;edgeStyle&quot;:&quot;elbowEdgeStyle&quot;,&quot;elbow&quot;:&quot;vertical&quot;,&quot;curved&quot;:0,&quot;rounded&quot;:0};" parent="1" vertex="1">
          <mxGeometry x="-100" y="40" width="100" height="1880" as="geometry" />
        </mxCell>
        <mxCell id="aM9ryv3xv72pqoxQDRHE-5" value="Frontend" style="shape=umlLifeline;perimeter=lifelinePerimeter;whiteSpace=wrap;html=1;container=0;dropTarget=0;collapsible=0;recursiveResize=0;outlineConnect=0;portConstraint=eastwest;newEdgeStyle={&quot;edgeStyle&quot;:&quot;elbowEdgeStyle&quot;,&quot;elbow&quot;:&quot;vertical&quot;,&quot;curved&quot;:0,&quot;rounded&quot;:0};" parent="1" vertex="1">
          <mxGeometry x="200" y="40" width="100" height="1860" as="geometry" />
        </mxCell>
        <mxCell id="aM9ryv3xv72pqoxQDRHE-6" value="" style="html=1;points=[];perimeter=orthogonalPerimeter;outlineConnect=0;targetShapes=umlLifeline;portConstraint=eastwest;newEdgeStyle={&quot;edgeStyle&quot;:&quot;elbowEdgeStyle&quot;,&quot;elbow&quot;:&quot;vertical&quot;,&quot;curved&quot;:0,&quot;rounded&quot;:0};" parent="aM9ryv3xv72pqoxQDRHE-5" vertex="1">
          <mxGeometry x="45" y="180" width="10" height="170" as="geometry" />
        </mxCell>
        <mxCell id="Lk89NqeJCPw3DJM_zRsA-20" value="" style="html=1;points=[];perimeter=orthogonalPerimeter;outlineConnect=0;targetShapes=umlLifeline;portConstraint=eastwest;newEdgeStyle={&quot;edgeStyle&quot;:&quot;elbowEdgeStyle&quot;,&quot;elbow&quot;:&quot;vertical&quot;,&quot;curved&quot;:0,&quot;rounded&quot;:0};" parent="aM9ryv3xv72pqoxQDRHE-5" vertex="1">
          <mxGeometry x="45" y="410" width="10" height="60" as="geometry" />
        </mxCell>
        <mxCell id="Lk89NqeJCPw3DJM_zRsA-59" value="" style="html=1;points=[];perimeter=orthogonalPerimeter;outlineConnect=0;targetShapes=umlLifeline;portConstraint=eastwest;newEdgeStyle={&quot;edgeStyle&quot;:&quot;elbowEdgeStyle&quot;,&quot;elbow&quot;:&quot;vertical&quot;,&quot;curved&quot;:0,&quot;rounded&quot;:0};" parent="aM9ryv3xv72pqoxQDRHE-5" vertex="1">
          <mxGeometry x="45" y="900" width="10" height="410" as="geometry" />
        </mxCell>
        <mxCell id="Lk89NqeJCPw3DJM_zRsA-91" value="" style="html=1;points=[];perimeter=orthogonalPerimeter;outlineConnect=0;targetShapes=umlLifeline;portConstraint=eastwest;newEdgeStyle={&quot;edgeStyle&quot;:&quot;elbowEdgeStyle&quot;,&quot;elbow&quot;:&quot;vertical&quot;,&quot;curved&quot;:0,&quot;rounded&quot;:0};" parent="aM9ryv3xv72pqoxQDRHE-5" vertex="1">
          <mxGeometry x="45" y="1450" width="10" height="160" as="geometry" />
        </mxCell>
        <mxCell id="Lk89NqeJCPw3DJM_zRsA-2" value="Backend" style="shape=umlLifeline;perimeter=lifelinePerimeter;whiteSpace=wrap;html=1;container=0;dropTarget=0;collapsible=0;recursiveResize=0;outlineConnect=0;portConstraint=eastwest;newEdgeStyle={&quot;edgeStyle&quot;:&quot;elbowEdgeStyle&quot;,&quot;elbow&quot;:&quot;vertical&quot;,&quot;curved&quot;:0,&quot;rounded&quot;:0};" parent="1" vertex="1">
          <mxGeometry x="590" y="40" width="100" height="1880" as="geometry" />
        </mxCell>
        <mxCell id="Lk89NqeJCPw3DJM_zRsA-3" value="" style="html=1;points=[];perimeter=orthogonalPerimeter;outlineConnect=0;targetShapes=umlLifeline;portConstraint=eastwest;newEdgeStyle={&quot;edgeStyle&quot;:&quot;elbowEdgeStyle&quot;,&quot;elbow&quot;:&quot;vertical&quot;,&quot;curved&quot;:0,&quot;rounded&quot;:0};" parent="Lk89NqeJCPw3DJM_zRsA-2" vertex="1">
          <mxGeometry x="45" y="220" width="10" height="80" as="geometry" />
        </mxCell>
        <mxCell id="Lk89NqeJCPw3DJM_zRsA-60" value="" style="html=1;points=[];perimeter=orthogonalPerimeter;outlineConnect=0;targetShapes=umlLifeline;portConstraint=eastwest;newEdgeStyle={&quot;edgeStyle&quot;:&quot;elbowEdgeStyle&quot;,&quot;elbow&quot;:&quot;vertical&quot;,&quot;curved&quot;:0,&quot;rounded&quot;:0};" parent="Lk89NqeJCPw3DJM_zRsA-2" vertex="1">
          <mxGeometry x="45" y="930" width="10" height="140" as="geometry" />
        </mxCell>
        <mxCell id="Lk89NqeJCPw3DJM_zRsA-68" value="" style="html=1;points=[];perimeter=orthogonalPerimeter;outlineConnect=0;targetShapes=umlLifeline;portConstraint=eastwest;newEdgeStyle={&quot;edgeStyle&quot;:&quot;elbowEdgeStyle&quot;,&quot;elbow&quot;:&quot;vertical&quot;,&quot;curved&quot;:0,&quot;rounded&quot;:0};" parent="Lk89NqeJCPw3DJM_zRsA-2" vertex="1">
          <mxGeometry x="45" y="1150" width="10" height="110" as="geometry" />
        </mxCell>
        <mxCell id="Lk89NqeJCPw3DJM_zRsA-85" value="" style="html=1;points=[];perimeter=orthogonalPerimeter;outlineConnect=0;targetShapes=umlLifeline;portConstraint=eastwest;newEdgeStyle={&quot;edgeStyle&quot;:&quot;elbowEdgeStyle&quot;,&quot;elbow&quot;:&quot;vertical&quot;,&quot;curved&quot;:0,&quot;rounded&quot;:0};" parent="Lk89NqeJCPw3DJM_zRsA-2" vertex="1">
          <mxGeometry x="45" y="1400" width="10" as="geometry" />
        </mxCell>
        <mxCell id="Lk89NqeJCPw3DJM_zRsA-92" value="" style="html=1;points=[];perimeter=orthogonalPerimeter;outlineConnect=0;targetShapes=umlLifeline;portConstraint=eastwest;newEdgeStyle={&quot;edgeStyle&quot;:&quot;elbowEdgeStyle&quot;,&quot;elbow&quot;:&quot;vertical&quot;,&quot;curved&quot;:0,&quot;rounded&quot;:0};" parent="Lk89NqeJCPw3DJM_zRsA-2" vertex="1">
          <mxGeometry x="45" y="1480" width="10" height="80" as="geometry" />
        </mxCell>
        <mxCell id="Lk89NqeJCPw3DJM_zRsA-4" value="Database" style="shape=umlLifeline;perimeter=lifelinePerimeter;whiteSpace=wrap;html=1;container=0;dropTarget=0;collapsible=0;recursiveResize=0;outlineConnect=0;portConstraint=eastwest;newEdgeStyle={&quot;edgeStyle&quot;:&quot;elbowEdgeStyle&quot;,&quot;elbow&quot;:&quot;vertical&quot;,&quot;curved&quot;:0,&quot;rounded&quot;:0};" parent="1" vertex="1">
          <mxGeometry x="960" y="40" width="100" height="1730" as="geometry" />
        </mxCell>
        <mxCell id="Lk89NqeJCPw3DJM_zRsA-73" value="" style="html=1;points=[];perimeter=orthogonalPerimeter;outlineConnect=0;targetShapes=umlLifeline;portConstraint=eastwest;newEdgeStyle={&quot;edgeStyle&quot;:&quot;elbowEdgeStyle&quot;,&quot;elbow&quot;:&quot;vertical&quot;,&quot;curved&quot;:0,&quot;rounded&quot;:0};" parent="Lk89NqeJCPw3DJM_zRsA-4" vertex="1">
          <mxGeometry x="45" y="1180" width="10" height="50" as="geometry" />
        </mxCell>
        <mxCell id="Lk89NqeJCPw3DJM_zRsA-96" value="" style="html=1;points=[];perimeter=orthogonalPerimeter;outlineConnect=0;targetShapes=umlLifeline;portConstraint=eastwest;newEdgeStyle={&quot;edgeStyle&quot;:&quot;elbowEdgeStyle&quot;,&quot;elbow&quot;:&quot;vertical&quot;,&quot;curved&quot;:0,&quot;rounded&quot;:0};" parent="Lk89NqeJCPw3DJM_zRsA-4" vertex="1">
          <mxGeometry x="45" y="1495" width="10" height="55" as="geometry" />
        </mxCell>
        <mxCell id="Lk89NqeJCPw3DJM_zRsA-6" value="User inputs Reddit post URL" style="rounded=0;whiteSpace=wrap;html=1;fillColor=#fff2cc;strokeColor=#d6b656;fontSize=13;" parent="1" vertex="1">
          <mxGeometry x="-40" y="100" width="190" height="40" as="geometry" />
        </mxCell>
        <mxCell id="Lk89NqeJCPw3DJM_zRsA-7" value="&lt;font style=&quot;color: rgb(255, 0, 255);&quot;&gt;Paste Reddit post URL and click continue&lt;/font&gt;" style="text;html=1;align=center;verticalAlign=middle;whiteSpace=wrap;rounded=0;fontSize=13;fontColor=#99FF99;fontStyle=1" parent="1" vertex="1">
          <mxGeometry x="-30" y="190" width="260" height="30" as="geometry" />
        </mxCell>
        <mxCell id="Lk89NqeJCPw3DJM_zRsA-8" value="" style="endArrow=classic;html=1;rounded=0;" parent="1" source="aM9ryv3xv72pqoxQDRHE-1" edge="1">
          <mxGeometry width="50" height="50" relative="1" as="geometry">
            <mxPoint x="70" y="220" as="sourcePoint" />
            <mxPoint x="245" y="220" as="targetPoint" />
          </mxGeometry>
        </mxCell>
        <mxCell id="Lk89NqeJCPw3DJM_zRsA-9" value="" style="endArrow=classic;html=1;rounded=0;exitX=0.114;exitY=1.067;exitDx=0;exitDy=0;exitPerimeter=0;" parent="1" source="Lk89NqeJCPw3DJM_zRsA-10" edge="1">
          <mxGeometry width="50" height="50" relative="1" as="geometry">
            <mxPoint x="270" y="260" as="sourcePoint" />
            <mxPoint x="635" y="260" as="targetPoint" />
          </mxGeometry>
        </mxCell>
        <mxCell id="Lk89NqeJCPw3DJM_zRsA-11" value="" style="endArrow=classic;html=1;rounded=0;dashed=1;strokeWidth=1;" parent="1" target="aM9ryv3xv72pqoxQDRHE-6" edge="1">
          <mxGeometry width="50" height="50" relative="1" as="geometry">
            <mxPoint x="640" y="340" as="sourcePoint" />
            <mxPoint x="260" y="340" as="targetPoint" />
            <Array as="points">
              <mxPoint x="430.5" y="340" />
            </Array>
          </mxGeometry>
        </mxCell>
        <mxCell id="Lk89NqeJCPw3DJM_zRsA-13" value="" style="endArrow=classic;html=1;rounded=0;dashed=1;strokeWidth=1;" parent="1" target="aM9ryv3xv72pqoxQDRHE-1" edge="1">
          <mxGeometry width="50" height="50" relative="1" as="geometry">
            <mxPoint x="247.5" y="390" as="sourcePoint" />
            <mxPoint x="-40" y="390" as="targetPoint" />
            <Array as="points">
              <mxPoint x="38" y="390" />
            </Array>
          </mxGeometry>
        </mxCell>
        <mxCell id="Lk89NqeJCPw3DJM_zRsA-14" value="Move to video template selection" style="text;html=1;align=center;verticalAlign=middle;whiteSpace=wrap;rounded=0;fontSize=13;" parent="1" vertex="1">
          <mxGeometry x="-20" y="360" width="240" height="30" as="geometry" />
        </mxCell>
        <mxCell id="Lk89NqeJCPw3DJM_zRsA-21" value="" style="endArrow=classic;html=1;rounded=0;" parent="1" edge="1">
          <mxGeometry width="50" height="50" relative="1" as="geometry">
            <mxPoint x="-47.5" y="450" as="sourcePoint" />
            <mxPoint x="247.5" y="450" as="targetPoint" />
          </mxGeometry>
        </mxCell>
        <mxCell id="Lk89NqeJCPw3DJM_zRsA-22" value="&lt;font style=&quot;color: rgb(255, 0, 255);&quot;&gt;&lt;b&gt;Choose video template&lt;/b&gt;&lt;/font&gt;" style="text;html=1;align=center;verticalAlign=middle;whiteSpace=wrap;rounded=0;fontSize=13;" parent="1" vertex="1">
          <mxGeometry x="-20" y="420" width="240" height="30" as="geometry" />
        </mxCell>
        <mxCell id="Lk89NqeJCPw3DJM_zRsA-25" value="" style="endArrow=classic;html=1;rounded=1;curved=0;dashed=1;" parent="1" edge="1">
          <mxGeometry width="50" height="50" relative="1" as="geometry">
            <mxPoint x="255" y="475" as="sourcePoint" />
            <mxPoint x="255" y="495" as="targetPoint" />
            <Array as="points">
              <mxPoint x="270" y="475" />
              <mxPoint x="290" y="485" />
              <mxPoint x="280" y="495" />
            </Array>
          </mxGeometry>
        </mxCell>
        <mxCell id="Lk89NqeJCPw3DJM_zRsA-28" value="&lt;font style=&quot;font-size: 13px;&quot;&gt;Capture selected video ID&lt;/font&gt;" style="text;html=1;align=center;verticalAlign=middle;whiteSpace=wrap;rounded=0;" parent="1" vertex="1">
          <mxGeometry x="180" y="450" width="200" height="30" as="geometry" />
        </mxCell>
        <mxCell id="Lk89NqeJCPw3DJM_zRsA-38" value="" style="html=1;points=[];perimeter=orthogonalPerimeter;outlineConnect=0;targetShapes=umlLifeline;portConstraint=eastwest;newEdgeStyle={&quot;edgeStyle&quot;:&quot;elbowEdgeStyle&quot;,&quot;elbow&quot;:&quot;vertical&quot;,&quot;curved&quot;:0,&quot;rounded&quot;:0};" parent="1" vertex="1">
          <mxGeometry x="245" y="570" width="10" height="60" as="geometry" />
        </mxCell>
        <mxCell id="Lk89NqeJCPw3DJM_zRsA-39" value="" style="endArrow=classic;html=1;rounded=0;" parent="1" edge="1">
          <mxGeometry width="50" height="50" relative="1" as="geometry">
            <mxPoint x="-47.5" y="570" as="sourcePoint" />
            <mxPoint x="247.5" y="570" as="targetPoint" />
          </mxGeometry>
        </mxCell>
        <mxCell id="Lk89NqeJCPw3DJM_zRsA-40" value="&lt;font style=&quot;color: rgb(255, 0, 255);&quot;&gt;&lt;b&gt;Choose voice and language&lt;/b&gt;&lt;/font&gt;" style="text;html=1;align=center;verticalAlign=middle;whiteSpace=wrap;rounded=0;fontSize=13;" parent="1" vertex="1">
          <mxGeometry x="-20" y="540" width="240" height="30" as="geometry" />
        </mxCell>
        <mxCell id="Lk89NqeJCPw3DJM_zRsA-41" value="" style="endArrow=classic;html=1;rounded=1;curved=0;dashed=1;" parent="1" edge="1">
          <mxGeometry width="50" height="50" relative="1" as="geometry">
            <mxPoint x="255" y="595" as="sourcePoint" />
            <mxPoint x="255" y="615" as="targetPoint" />
            <Array as="points">
              <mxPoint x="270" y="595" />
              <mxPoint x="290" y="605" />
              <mxPoint x="280" y="615" />
            </Array>
          </mxGeometry>
        </mxCell>
        <mxCell id="Lk89NqeJCPw3DJM_zRsA-42" value="&lt;font style=&quot;font-size: 13px;&quot;&gt;Capture voice ID and language&lt;/font&gt;" style="text;html=1;align=center;verticalAlign=middle;whiteSpace=wrap;rounded=0;" parent="1" vertex="1">
          <mxGeometry x="180" y="570" width="200" height="30" as="geometry" />
        </mxCell>
        <mxCell id="Lk89NqeJCPw3DJM_zRsA-43" value="" style="html=1;points=[];perimeter=orthogonalPerimeter;outlineConnect=0;targetShapes=umlLifeline;portConstraint=eastwest;newEdgeStyle={&quot;edgeStyle&quot;:&quot;elbowEdgeStyle&quot;,&quot;elbow&quot;:&quot;vertical&quot;,&quot;curved&quot;:0,&quot;rounded&quot;:0};" parent="1" vertex="1">
          <mxGeometry x="245" y="690" width="10" height="60" as="geometry" />
        </mxCell>
        <mxCell id="Lk89NqeJCPw3DJM_zRsA-44" value="" style="endArrow=classic;html=1;rounded=0;" parent="1" edge="1">
          <mxGeometry width="50" height="50" relative="1" as="geometry">
            <mxPoint x="-47.5" y="690" as="sourcePoint" />
            <mxPoint x="247.5" y="690" as="targetPoint" />
          </mxGeometry>
        </mxCell>
        <mxCell id="Lk89NqeJCPw3DJM_zRsA-45" value="&lt;font style=&quot;color: rgb(255, 0, 255);&quot;&gt;&lt;b&gt;Choose length and aspect ratio&lt;/b&gt;&lt;/font&gt;" style="text;html=1;align=center;verticalAlign=middle;whiteSpace=wrap;rounded=0;fontSize=13;" parent="1" vertex="1">
          <mxGeometry x="-20" y="660" width="240" height="30" as="geometry" />
        </mxCell>
        <mxCell id="Lk89NqeJCPw3DJM_zRsA-46" value="" style="endArrow=classic;html=1;rounded=1;curved=0;dashed=1;" parent="1" edge="1">
          <mxGeometry width="50" height="50" relative="1" as="geometry">
            <mxPoint x="255" y="715" as="sourcePoint" />
            <mxPoint x="255" y="735" as="targetPoint" />
            <Array as="points">
              <mxPoint x="270" y="715" />
              <mxPoint x="290" y="725" />
              <mxPoint x="280" y="735" />
            </Array>
          </mxGeometry>
        </mxCell>
        <mxCell id="Lk89NqeJCPw3DJM_zRsA-47" value="&lt;font style=&quot;font-size: 13px;&quot;&gt;Capture video length and ratio&lt;/font&gt;" style="text;html=1;align=center;verticalAlign=middle;whiteSpace=wrap;rounded=0;" parent="1" vertex="1">
          <mxGeometry x="180" y="690" width="200" height="30" as="geometry" />
        </mxCell>
        <mxCell id="Lk89NqeJCPw3DJM_zRsA-49" value="" style="endArrow=classic;html=1;rounded=0;dashed=1;strokeWidth=1;" parent="1" edge="1">
          <mxGeometry width="50" height="50" relative="1" as="geometry">
            <mxPoint x="248.75" y="750" as="sourcePoint" />
            <mxPoint x="-48.75" y="750" as="targetPoint" />
            <Array as="points">
              <mxPoint x="39.25" y="750" />
            </Array>
          </mxGeometry>
        </mxCell>
        <mxCell id="Lk89NqeJCPw3DJM_zRsA-51" value="" style="html=1;points=[];perimeter=orthogonalPerimeter;outlineConnect=0;targetShapes=umlLifeline;portConstraint=eastwest;newEdgeStyle={&quot;edgeStyle&quot;:&quot;elbowEdgeStyle&quot;,&quot;elbow&quot;:&quot;vertical&quot;,&quot;curved&quot;:0,&quot;rounded&quot;:0};" parent="1" vertex="1">
          <mxGeometry x="245" y="820" width="10" height="60" as="geometry" />
        </mxCell>
        <mxCell id="Lk89NqeJCPw3DJM_zRsA-52" value="" style="endArrow=classic;html=1;rounded=0;" parent="1" edge="1">
          <mxGeometry width="50" height="50" relative="1" as="geometry">
            <mxPoint x="-47.5" y="820" as="sourcePoint" />
            <mxPoint x="247.5" y="820" as="targetPoint" />
          </mxGeometry>
        </mxCell>
        <mxCell id="Lk89NqeJCPw3DJM_zRsA-53" value="&lt;font style=&quot;color: rgb(255, 0, 255);&quot;&gt;&lt;b&gt;Adjust video length, voice, language, ratio&lt;/b&gt;&lt;/font&gt;" style="text;html=1;align=center;verticalAlign=middle;whiteSpace=wrap;rounded=0;fontSize=13;" parent="1" vertex="1">
          <mxGeometry x="-40" y="790" width="280" height="30" as="geometry" />
        </mxCell>
        <mxCell id="Lk89NqeJCPw3DJM_zRsA-54" value="" style="endArrow=classic;html=1;rounded=1;curved=0;dashed=1;" parent="1" edge="1">
          <mxGeometry width="50" height="50" relative="1" as="geometry">
            <mxPoint x="255" y="845" as="sourcePoint" />
            <mxPoint x="255" y="865" as="targetPoint" />
            <Array as="points">
              <mxPoint x="270" y="845" />
              <mxPoint x="290" y="855" />
              <mxPoint x="280" y="865" />
            </Array>
          </mxGeometry>
        </mxCell>
        <mxCell id="Lk89NqeJCPw3DJM_zRsA-55" value="&lt;font style=&quot;font-size: 13px;&quot;&gt;Re-capture info&lt;/font&gt;" style="text;html=1;align=center;verticalAlign=middle;whiteSpace=wrap;rounded=0;" parent="1" vertex="1">
          <mxGeometry x="170" y="820" width="200" height="30" as="geometry" />
        </mxCell>
        <mxCell id="Lk89NqeJCPw3DJM_zRsA-56" value="" style="endArrow=classic;html=1;rounded=0;" parent="1" edge="1">
          <mxGeometry width="50" height="50" relative="1" as="geometry">
            <mxPoint x="-50" y="940" as="sourcePoint" />
            <mxPoint x="250" y="940" as="targetPoint" />
          </mxGeometry>
        </mxCell>
        <mxCell id="Lk89NqeJCPw3DJM_zRsA-57" value="&lt;b&gt;&lt;font style=&quot;color: rgb(255, 0, 255);&quot;&gt;Click DONE&lt;/font&gt;&lt;/b&gt;" style="text;html=1;align=center;verticalAlign=middle;resizable=0;points=[];autosize=1;strokeColor=none;fillColor=none;fontSize=13;" parent="1" vertex="1">
          <mxGeometry x="40" y="910" width="100" height="30" as="geometry" />
        </mxCell>
        <mxCell id="Lk89NqeJCPw3DJM_zRsA-61" value="" style="endArrow=classic;html=1;rounded=0;exitX=0.114;exitY=1.067;exitDx=0;exitDy=0;exitPerimeter=0;" parent="1" edge="1">
          <mxGeometry width="50" height="50" relative="1" as="geometry">
            <mxPoint x="255.5" y="971" as="sourcePoint" />
            <mxPoint x="634.5" y="970" as="targetPoint" />
          </mxGeometry>
        </mxCell>
        <mxCell id="Lk89NqeJCPw3DJM_zRsA-64" value="" style="endArrow=classic;html=1;rounded=1;curved=0;dashed=1;" parent="1" edge="1">
          <mxGeometry width="50" height="50" relative="1" as="geometry">
            <mxPoint x="645" y="1064" as="sourcePoint" />
            <mxPoint x="645" y="1084" as="targetPoint" />
            <Array as="points">
              <mxPoint x="660" y="1064" />
              <mxPoint x="680" y="1074" />
              <mxPoint x="670" y="1084" />
            </Array>
          </mxGeometry>
        </mxCell>
        <mxCell id="Lk89NqeJCPw3DJM_zRsA-65" value="Trigger background job to process video" style="text;html=1;align=center;verticalAlign=middle;whiteSpace=wrap;rounded=0;fontSize=13;" parent="1" vertex="1">
          <mxGeometry x="530" y="1030" width="280" height="30" as="geometry" />
        </mxCell>
        <mxCell id="Lk89NqeJCPw3DJM_zRsA-66" value="" style="endArrow=classic;html=1;rounded=0;" parent="1" target="Lk89NqeJCPw3DJM_zRsA-4" edge="1">
          <mxGeometry width="50" height="50" relative="1" as="geometry">
            <mxPoint x="645" y="1010" as="sourcePoint" />
            <mxPoint x="1005" y="1010" as="targetPoint" />
          </mxGeometry>
        </mxCell>
        <mxCell id="Lk89NqeJCPw3DJM_zRsA-67" value="Insert data to table job_add_reddit_comment_overlay&amp;nbsp;&amp;nbsp;" style="text;html=1;align=center;verticalAlign=middle;whiteSpace=wrap;rounded=0;fontSize=13;" parent="1" vertex="1">
          <mxGeometry x="705" y="980" width="260" height="30" as="geometry" />
        </mxCell>
        <mxCell id="Lk89NqeJCPw3DJM_zRsA-69" value="" style="endArrow=classic;html=1;rounded=0;dashed=1;strokeWidth=1;" parent="1" edge="1">
          <mxGeometry width="50" height="50" relative="1" as="geometry">
            <mxPoint x="637.5" y="1110" as="sourcePoint" />
            <mxPoint x="252.5" y="1110" as="targetPoint" />
            <Array as="points">
              <mxPoint x="428" y="1110" />
            </Array>
          </mxGeometry>
        </mxCell>
        <mxCell id="Lk89NqeJCPw3DJM_zRsA-71" value="" style="endArrow=classic;html=1;rounded=0;exitX=0.114;exitY=1.067;exitDx=0;exitDy=0;exitPerimeter=0;" parent="1" edge="1">
          <mxGeometry width="50" height="50" relative="1" as="geometry">
            <mxPoint x="255" y="1191" as="sourcePoint" />
            <mxPoint x="634" y="1190" as="targetPoint" />
          </mxGeometry>
        </mxCell>
        <mxCell id="Lk89NqeJCPw3DJM_zRsA-74" value="" style="endArrow=classic;html=1;rounded=0;" parent="1" edge="1">
          <mxGeometry width="50" height="50" relative="1" as="geometry">
            <mxPoint x="650" y="1220" as="sourcePoint" />
            <mxPoint x="1005" y="1220" as="targetPoint" />
          </mxGeometry>
        </mxCell>
        <mxCell id="Lk89NqeJCPw3DJM_zRsA-75" value="Query job_status filter by job_id" style="text;html=1;align=center;verticalAlign=middle;whiteSpace=wrap;rounded=0;fontSize=13;" parent="1" vertex="1">
          <mxGeometry x="700" y="1190" width="260" height="30" as="geometry" />
        </mxCell>
        <mxCell id="Lk89NqeJCPw3DJM_zRsA-76" value="" style="endArrow=classic;html=1;rounded=0;dashed=1;strokeWidth=1;" parent="1" edge="1">
          <mxGeometry width="50" height="50" relative="1" as="geometry">
            <mxPoint x="1015" y="1270" as="sourcePoint" />
            <mxPoint x="650" y="1270" as="targetPoint" />
            <Array as="points">
              <mxPoint x="805.5" y="1270" />
            </Array>
          </mxGeometry>
        </mxCell>
        <mxCell id="Lk89NqeJCPw3DJM_zRsA-77" value="Return job_status" style="text;html=1;align=center;verticalAlign=middle;whiteSpace=wrap;rounded=0;fontSize=13;" parent="1" vertex="1">
          <mxGeometry x="705" y="1240" width="260" height="30" as="geometry" />
        </mxCell>
        <mxCell id="Lk89NqeJCPw3DJM_zRsA-78" value="" style="endArrow=classic;html=1;rounded=0;dashed=1;strokeWidth=1;" parent="1" edge="1">
          <mxGeometry width="50" height="50" relative="1" as="geometry">
            <mxPoint x="640" y="1300" as="sourcePoint" />
            <mxPoint x="255" y="1300" as="targetPoint" />
            <Array as="points">
              <mxPoint x="430.5" y="1300" />
            </Array>
          </mxGeometry>
        </mxCell>
        <mxCell id="Lk89NqeJCPw3DJM_zRsA-80" value="" style="endArrow=classic;html=1;rounded=0;dashed=1;strokeWidth=1;" parent="1" edge="1">
          <mxGeometry width="50" height="50" relative="1" as="geometry">
            <mxPoint x="248.75" y="1350" as="sourcePoint" />
            <mxPoint x="-48.75" y="1350" as="targetPoint" />
            <Array as="points">
              <mxPoint x="39.25" y="1350" />
            </Array>
          </mxGeometry>
        </mxCell>
        <mxCell id="Lk89NqeJCPw3DJM_zRsA-81" value="Display progress" style="text;html=1;align=center;verticalAlign=middle;resizable=0;points=[];autosize=1;strokeColor=none;fillColor=none;fontSize=13;" parent="1" vertex="1">
          <mxGeometry x="30" y="1320" width="120" height="30" as="geometry" />
        </mxCell>
        <mxCell id="Lk89NqeJCPw3DJM_zRsA-83" value="Loop" style="text;html=1;align=center;verticalAlign=middle;whiteSpace=wrap;rounded=0;fontSize=14;fontStyle=1" parent="1" vertex="1">
          <mxGeometry x="-110" y="1150" width="60" height="30" as="geometry" />
        </mxCell>
        <mxCell id="Lk89NqeJCPw3DJM_zRsA-84" value="Video processing status tracking" style="text;html=1;align=center;verticalAlign=middle;whiteSpace=wrap;rounded=0;fontStyle=1;fillColor=#fad9d5;fillStyle=auto;strokeColor=#ae4132;opacity=80;" parent="1" vertex="1">
          <mxGeometry x="90" y="1145" width="250" height="30" as="geometry" />
        </mxCell>
        <mxCell id="Lk89NqeJCPw3DJM_zRsA-72" value="&lt;font style=&quot;font-size: 13px;&quot;&gt;GET&lt;b&gt;&amp;nbsp;&lt;/b&gt;&lt;/font&gt;&lt;span style=&quot;color: rgb(0, 0, 255); font-family: &amp;quot;Comic Sans MS&amp;quot;; font-size: 13px; font-style: italic; font-weight: 700; background-color: rgb(255, 204, 153);&quot;&gt;/api/video/status/{job_id}/&lt;/span&gt;" style="text;html=1;align=center;verticalAlign=middle;whiteSpace=wrap;rounded=0;" parent="1" vertex="1">
          <mxGeometry x="200" y="1160" width="490" height="30" as="geometry" />
        </mxCell>
        <mxCell id="Lk89NqeJCPw3DJM_zRsA-86" value="" style="endArrow=classic;html=1;rounded=0;" parent="1" edge="1">
          <mxGeometry width="50" height="50" relative="1" as="geometry">
            <mxPoint x="640" y="1440" as="sourcePoint" />
            <mxPoint x="1009.5" y="1440" as="targetPoint" />
          </mxGeometry>
        </mxCell>
        <mxCell id="Lk89NqeJCPw3DJM_zRsA-88" value="Store download URL to database" style="text;html=1;align=center;verticalAlign=middle;resizable=0;points=[];autosize=1;strokeColor=none;fillColor=none;fontSize=13;" parent="1" vertex="1">
          <mxGeometry x="730" y="1410" width="210" height="30" as="geometry" />
        </mxCell>
        <mxCell id="Lk89NqeJCPw3DJM_zRsA-93" value="" style="endArrow=classic;html=1;rounded=0;exitX=0.114;exitY=1.067;exitDx=0;exitDy=0;exitPerimeter=0;" parent="1" edge="1">
          <mxGeometry width="50" height="50" relative="1" as="geometry">
            <mxPoint x="255" y="1521" as="sourcePoint" />
            <mxPoint x="634" y="1520" as="targetPoint" />
          </mxGeometry>
        </mxCell>
        <mxCell id="Lk89NqeJCPw3DJM_zRsA-94" value="&lt;span style=&quot;forced-color-adjust: none; font-variant-ligatures: normal; font-variant-caps: normal; letter-spacing: normal; orphans: 2; text-align: center; text-indent: 0px; text-transform: none; widows: 2; word-spacing: 0px; -webkit-text-stroke-width: 0px; white-space: normal; text-decoration-thickness: initial; text-decoration-style: initial; text-decoration-color: initial; font-size: 13px; background-color: rgb(251, 251, 251);&quot;&gt;POST&amp;nbsp;&lt;/span&gt;&lt;span style=&quot;forced-color-adjust: none; font-variant-ligatures: normal; font-variant-caps: normal; letter-spacing: normal; orphans: 2; text-align: center; text-indent: 0px; text-transform: none; widows: 2; word-spacing: 0px; -webkit-text-stroke-width: 0px; white-space: normal; text-decoration-thickness: initial; text-decoration-style: initial; text-decoration-color: initial; color: rgb(0, 0, 255); font-family: &amp;quot;Comic Sans MS&amp;quot;; font-size: 13px; font-style: italic; font-weight: 700; background-color: rgb(255, 204, 153);&quot;&gt;/api/video/get_output_video/&lt;/span&gt;" style="text;whiteSpace=wrap;html=1;" parent="1" vertex="1">
          <mxGeometry x="330" y="1490" width="230" height="40" as="geometry" />
        </mxCell>
        <mxCell id="Lk89NqeJCPw3DJM_zRsA-97" value="" style="endArrow=classic;html=1;rounded=0;" parent="1" target="Lk89NqeJCPw3DJM_zRsA-96" edge="1">
          <mxGeometry width="50" height="50" relative="1" as="geometry">
            <mxPoint x="645.25" y="1540" as="sourcePoint" />
            <mxPoint x="1000" y="1540" as="targetPoint" />
          </mxGeometry>
        </mxCell>
        <mxCell id="Lk89NqeJCPw3DJM_zRsA-98" value="Query output_video filter by job_id" style="text;html=1;align=center;verticalAlign=middle;whiteSpace=wrap;rounded=0;fontSize=13;" parent="1" vertex="1">
          <mxGeometry x="705" y="1510" width="260" height="30" as="geometry" />
        </mxCell>
        <mxCell id="Lk89NqeJCPw3DJM_zRsA-99" value="" style="endArrow=classic;html=1;rounded=0;dashed=1;strokeWidth=1;" parent="1" edge="1">
          <mxGeometry width="50" height="50" relative="1" as="geometry">
            <mxPoint x="1012.5" y="1590" as="sourcePoint" />
            <mxPoint x="647.5" y="1590" as="targetPoint" />
            <Array as="points">
              <mxPoint x="803" y="1590" />
            </Array>
          </mxGeometry>
        </mxCell>
        <mxCell id="Lk89NqeJCPw3DJM_zRsA-100" value="Return download url" style="text;html=1;align=center;verticalAlign=middle;whiteSpace=wrap;rounded=0;fontSize=13;" parent="1" vertex="1">
          <mxGeometry x="702.5" y="1560" width="260" height="30" as="geometry" />
        </mxCell>
        <mxCell id="Lk89NqeJCPw3DJM_zRsA-101" value="" style="endArrow=classic;html=1;rounded=0;dashed=1;strokeWidth=1;" parent="1" edge="1">
          <mxGeometry width="50" height="50" relative="1" as="geometry">
            <mxPoint x="637.5" y="1600" as="sourcePoint" />
            <mxPoint x="252.5" y="1600" as="targetPoint" />
            <Array as="points">
              <mxPoint x="428" y="1600" />
            </Array>
          </mxGeometry>
        </mxCell>
        <mxCell id="Lk89NqeJCPw3DJM_zRsA-102" value="Return download url" style="text;html=1;align=center;verticalAlign=middle;whiteSpace=wrap;rounded=0;fontSize=13;" parent="1" vertex="1">
          <mxGeometry x="315" y="1570" width="260" height="30" as="geometry" />
        </mxCell>
        <mxCell id="Lk89NqeJCPw3DJM_zRsA-103" value="" style="endArrow=classic;html=1;rounded=0;dashed=1;strokeWidth=1;" parent="1" edge="1">
          <mxGeometry width="50" height="50" relative="1" as="geometry">
            <mxPoint x="248.75" y="1649" as="sourcePoint" />
            <mxPoint x="-48.75" y="1649" as="targetPoint" />
            <Array as="points">
              <mxPoint x="39.25" y="1649" />
            </Array>
          </mxGeometry>
        </mxCell>
        <mxCell id="Lk89NqeJCPw3DJM_zRsA-104" value="Download button" style="text;html=1;align=center;verticalAlign=middle;resizable=0;points=[];autosize=1;strokeColor=none;fillColor=none;fontSize=13;" parent="1" vertex="1">
          <mxGeometry x="30" y="1619" width="120" height="30" as="geometry" />
        </mxCell>
        <mxCell id="Lk89NqeJCPw3DJM_zRsA-105" value="" style="endArrow=classic;html=1;rounded=0;" parent="1" edge="1">
          <mxGeometry width="50" height="50" relative="1" as="geometry">
            <mxPoint x="-50" y="1730" as="sourcePoint" />
            <mxPoint x="250" y="1730" as="targetPoint" />
          </mxGeometry>
        </mxCell>
        <mxCell id="Lk89NqeJCPw3DJM_zRsA-106" value="&lt;b&gt;&lt;font style=&quot;color: rgb(255, 0, 255);&quot;&gt;Click DOWNLOAD&lt;/font&gt;&lt;/b&gt;" style="text;html=1;align=center;verticalAlign=middle;resizable=0;points=[];autosize=1;strokeColor=none;fillColor=none;fontSize=13;" parent="1" vertex="1">
          <mxGeometry x="20" y="1700" width="140" height="30" as="geometry" />
        </mxCell>
      </root>
    </mxGraphModel>
  </diagram>
</mxfile>
